<svg viewBox="0 0 1024 1139.36" xmlns="http://www.w3.org/2000/svg"><g transform="translate(-448.03 29.81)"><path d="m959.94 946.92q-214.77 0-429.53-.09c-59-.12-98-58-76.29-111.81 3.85-9.54 10.22-17.42 16.07-25.73 22.9-32.52 45.53-65.24 68.19-97.93 10.45-15.08 15-31.86 15-50.21-.15-94-2-188.11.34-282.09 4.28-174.86 86.28-302.24 245.46-374.23 229.66-103.83 502.76 36.17 557.21 282.31a438.23 438.23 0 0 1 10.25 95.73c-.13 91.91.15 183.83-.19 275.74-.07 21.15 5.6 39.81 17.83 57 24.06 33.78 47.77 67.8 71.5 101.81 18.86 27 21.56 56 6.73 85.16s-40.15 44.21-73 44.26q-214.81.34-429.57.08z" fill="#0b8945"/><path d="m959.78 1005.5q82.5 0 165 0c3.27 0 8.11-.62 9.48 1.15 2.79 3.64-1.66 6.74-3.58 9.72-79.85 123.63-259.68 124.36-340.63 1.37-2.19-3.31-7.06-6.63-4.6-10.85 1.94-3.33 7-1.31 10.61-1.32q81.86-.15 163.72-.07z" fill="#0b8a45"/></g></svg>