<svg id="Layer_1" data-name="Layer 1" xmlns="http://www.w3.org/2000/svg" viewBox="0 0 1024 1139.66"><defs><style>.cls-1{fill:#58b748;}</style></defs><path class="cls-1" d="M1366.61,512c0,49.13.27,98.26-.12,147.39a92.07,92.07,0,0,0,17.56,55.8q36.4,51.23,72.15,102.92c18.49,26.66,20.94,55.29,6.53,84.09s-39.15,44.33-71.5,44.59c-73.26.59-146.53.36-219.8,0-9,0-12.81,2.24-15.32,11.48-24.57,90.53-103.62,151.4-195.8,151.5-92.72.1-171.94-60.83-196.81-152-2.3-8.44-5.43-11.1-14.32-11-71.15.43-142.3,0-213.45.34-35.39.18-63-13.35-78.78-45.41C441.27,869.77,447,840,468.34,811.43c24.81-33.21,47.79-67.8,71.24-102,10.11-14.74,13.78-31.44,13.75-49.31-.18-94.45-2.25-189,.39-283.34C558.56,204.14,639.54,77.69,796.56,5.9c237.16-108.42,516.07,40.3,563,296.92a429.16,429.16,0,0,1,7.12,78.26Q1366.53,446.53,1366.61,512Zm22.82,353.33c-24.82-35.79-48.2-70-72.11-103.82-22-31.13-32.32-65.47-32.16-103.58.37-91.48.06-183,.16-274.45a366.89,366.89,0,0,0-4.82-60.66c-31.35-188.79-222-310.28-406.67-259C732.54,103,635.47,229.46,634.68,376.22c-.5,94-.33,188,0,282.08.14,38.11-10.36,72.43-32.36,103.53s-43.57,62.5-65.16,93.89c-1.95,2.84-5.78,5.07-4.72,9.57Zm-316,81.72c-75.11,0-149.16,0-223.21,0a18,18,0,0,0-3.48.7c11.54,44,60.75,79.72,110.48,80.5C1009.73,1029.05,1059.42,994.75,1073.46,947Z" transform="translate(-448.03 29.93)"/></svg>