<svg viewBox="0 0 1024 1023.39" xmlns="http://www.w3.org/2000/svg"><g fill="#fff" transform="translate(-451.92 -27.8)"><path d="m452 575.67q0-181.51.05-363c.08-55.83 36.35-100.07 90.18-110.16 8.57-1.6 17.49-1.78 26.25-1.79q212.13-.15 424.26 0c6.27 0 12.81.18 18.76 1.89 16.93 4.87 27.17 21.51 25 39.2a36.06 36.06 0 0 1 -34.21 31.5c-4.21.22-8.44.17-12.66.17q-209.49 0-419 .07a81.91 81.91 0 0 0 -17.78 1.61c-15.15 3.4-25.69 15.74-27.18 31.15-.43 4.54-.44 9.13-.44 13.7q0 356.17 0 712.36a127.65 127.65 0 0 0 .5 13.7 35.29 35.29 0 0 0 31.83 31.44c4.18.43 8.42.45 12.64.46q320.3 0 640.6 0c2.81 0 5.63 0 8.44-.08 22.39-1 36.54-15.32 37-37.63.23-12 .06-23.92.06-35.88q0-159.89.08-319.78c0-6.27.31-12.75 1.85-18.78 4-15.87 18.89-26.59 35.31-26.33a35.74 35.74 0 0 1 34.46 27.33 69.15 69.15 0 0 1 1.61 15.67q.13 176.78 0 353.54c-.07 68.32-47.23 115.13-115.71 115.14q-323.48 0-646.94 0c-68.3 0-115-47-115-115.62q-.04-179.94.04-359.88z"/><path d="m1475.81 168.09c-.94 40.72-17 74.48-45.76 103.16q-179.76 179.13-359.05 358.75c-37.56 37.55-74.83 75.39-112.9 112.42a75.52 75.52 0 0 1 -27.32 16.77c-66.8 22.9-133.9 44.93-200.9 67.22-3.66 1.22-7.34 2.41-11.07 3.41-14 3.74-26.59 1.33-36.89-9.25-10.58-10.87-12.94-23.85-8.26-38q21.34-64.57 42.9-129.04c9.09-27.34 17.62-54.88 27.6-81.9 3.53-9.56 9.12-19.29 16.26-26.46 157.41-158 315.63-315.11 472.66-473.44 73.41-74 191.49-50.17 230.18 39.18 7.66 17.69 13.52 56.91 12.55 57.18zm-709.81 568.79c4.91-1.46 8.17-2.33 11.37-3.4 40-13.32 80.06-26.44 119.9-40.22a49.89 49.89 0 0 0 18.33-11.39q218.86-218.34 437.4-437.08c11.92-11.93 24.41-23.48 35-36.51 28.68-35.21 12.65-89.24-30.41-103.52-28.78-9.55-52.86-.88-73.79 20.07-142.96 143.08-285.49 286.57-429.49 428.56-28.62 28.21-50.38 57.92-60.18 97.22-7.13 28.76-18.29 56.53-28.13 86.27z"/></g></svg>