<svg id="Layer_1" data-name="Layer 1" xmlns="http://www.w3.org/2000/svg" viewBox="0 0 1024 1022.95"><defs><style>.cls-1{fill:#0b8945;}</style></defs><path class="cls-1" d="M557.6,795.24c0-50.53-.21-101.06.2-151.58.07-8.51-2.31-10.57-10.68-10.54-52.85.18-90.19-30.47-98.33-81-4.45-27.61,3.57-52.29,21.18-73.84a171.51,171.51,0,0,1,11.87-12.56c135.45-135.49,271.76-270.13,405.85-407,38.35-39.13,107-39.61,145.82,0q202.93,207,409.82,410.16C1479.88,505,1480.51,572,1447.87,604c-20.21,19.84-43.9,30.36-72.18,29.1-9.56-.43-12.44,1.81-12.39,12q.66,147.49.19,295c-.14,53.57-33.62,96.09-84.89,108.91a115,115,0,0,1-28.18,3.17q-78.32-.11-156.64,0c-22.61,0-34.41-11.74-34.43-34.49q-.12-114.43,0-228.89c0-7.12.07-14.26-1.81-21.21-6.08-22.49-25.27-37.07-49.85-37.28-30.86-.26-61.71-.21-92.57,0-32.1.18-52.84,20.71-52.92,52.88-.2,77-.07,153.95-.07,230.93,0,27.39-10.73,38.1-38.13,38.11q-75.78,0-151.56,0c-67-.09-114.64-47.62-114.78-114.47C557.52,890.18,557.6,842.71,557.6,795.24Z" transform="translate(-447.58 -29.23)"/></svg>