<svg id="Layer_1" data-name="Layer 1" xmlns="http://www.w3.org/2000/svg" viewBox="0 0 1024 1022.93"><defs><style>.cls-1{fill:#58b748;}</style></defs><path class="cls-1" d="M1363.36,795.7c0,47.13.08,94.27,0,141.4-.15,67.67-47.52,114.9-115.28,115q-76.29.08-152.58,0c-25,0-36.17-11-36.18-35.75q-.06-114.44,0-228.88c0-16.19-3.25-31-15.29-42.73-9.64-9.4-21.25-14.39-34.79-14.42-32.22-.06-64.43-.32-96.64,0-29.94.34-50.42,21.42-50.5,52.08-.21,77-.07,153.94-.08,230.91,0,28.12-10.59,38.75-38.58,38.76q-75.78,0-151.57,0c-66.37-.13-114.23-47.73-114.33-113.94q-.21-146.48.21-293c0-10-2.67-12.17-12.35-12.13-57.88.25-100-42.48-97.62-98.74.9-21.7,9-40.83,23.21-57.28,2.88-3.33,6-6.46,9.11-9.58C616.53,331,753.67,195.29,888.92,57.71c37.13-37.76,105.51-38.2,142.82-.28Q1235.76,264.82,1443,469c44.78,44.24,36.93,127.44-22.29,154.83-15.09,7-30.77,10.51-47.3,9.34-7.86-.55-10.35,1.72-10.28,10C1363.56,694,1363.36,744.85,1363.36,795.7Zm-745.5-20.33c0,54.25-.08,108.5,0,162.75.07,33.41,20.5,53.59,54.08,53.65,39.68.07,79.35-.33,119,.26,9.42.15,11-2.91,10.91-11.45-.31-67.81-.58-135.63.09-203.44.48-49.15,35.49-93.44,83.8-103.23,44.1-8.93,89.15-3.48,133.81-3.08a56.83,56.83,0,0,1,12,1.76c52.44,12,87.13,54.83,87.42,109,.36,66.79.18,133.59,0,200.39,0,7,.93,10.14,9.17,10,41.36-.45,82.73-.27,124.1-.18a49.14,49.14,0,0,0,27.92-8c17.18-11.36,23.43-27.91,23.4-47.94q-.22-162.75-.07-325.51c0-25.78,10.78-36.74,36.16-36.76,13.22,0,26.45.23,39.67-.08,16.18-.37,29-11.12,32.92-26.75,4-16-4.14-27.07-14.7-37.61Q1193.21,305,989,100.64c-19.56-19.56-37.38-19.5-57.06.16Q829.38,203.24,726.85,305.71,623.62,408.91,520.39,512.12c-11.51,11.47-15.74,24.34-10.06,39.7,5.29,14.3,17.84,21.7,35.61,21.75,11.53,0,23.06,0,34.59,0,26,0,37.31,11.17,37.32,37Q617.9,693,617.86,775.37Z" transform="translate(-447.7 -29.19)"/></svg>