<svg id="Layer_1" data-name="Layer 1" xmlns="http://www.w3.org/2000/svg" viewBox="0 0 1024 1535.13"><defs><style>.cls-1{fill:#fff;}</style></defs><path class="cls-1" d="M948.32-228.09c232.78.63,431.95,146.21,497.31,359.06,42.52,138.46,29.47,273-40.36,400.24Q1198.65,907.62,990.1,1283c-7.22,13.08-15.82,23.9-32.11,24.07-17.06.17-25.74-11.18-33.24-24.77q-206.88-374.46-414-748.8C408.4,348.24,428.44,120.24,563-41.44,647.54-143,756-204.26,887.49-222.61,910.81-225.86,934.43-226.88,948.32-228.09Zm8.6,255.88C815.05,28.8,701,143.84,702,285c1,141.63,116.35,255.46,257.8,254.34,140.6-1.11,254.83-117.08,253.35-257.19C1211.64,140.66,1096.94,26.79,956.92,27.79Z" transform="translate(-445.97 228.09)"/></svg>