<svg viewBox="0 0 1024 1535.13" xmlns="http://www.w3.org/2000/svg"><path d="m948.32-228.09c232.78.63 431.95 146.21 497.31 359.06 42.52 138.46 29.47 273-40.36 400.24q-206.62 376.41-415.17 751.79c-7.22 13.08-15.82 23.9-32.11 24.07-17.06.17-25.74-11.18-33.24-24.77q-206.88-374.46-414-748.8c-102.35-185.26-82.31-413.26 52.25-574.94 84.54-101.56 193-162.82 324.49-181.17 23.32-3.25 46.94-4.27 60.83-5.48zm8.6 255.88c-141.87 1.01-255.92 116.05-254.92 257.21 1 141.63 116.35 255.46 257.8 254.34 140.6-1.11 254.83-117.08 253.35-257.19-1.51-141.49-116.21-255.36-256.23-254.36z" fill="#fff" transform="translate(-445.97 228.09)"/></svg>