<svg viewBox="0 0 1024 1024.2" xmlns="http://www.w3.org/2000/svg"><g fill="#0d8b46" transform="translate(-447.16 -22.36)"><path d="m1471.16 534.46c-.34 243.58-169.56 452.29-408.67 501.16-119.13 24.34-233.76 8.09-341.73-49-11.69-6.18-21.39-7.26-34.15-3-60.42 20.32-121.22 39.5-181.94 58.91-22 7-39.22 2.05-50.46-14.36-8.45-12.33-8-25.39-3.5-39.18 20.66-63.65 40.91-127.43 61.64-191.06 2.15-6.62 1.5-11.73-1.78-17.69-46.4-84.42-68.06-175.09-62.58-271 8.9-155.66 75.13-282.85 197.46-379.68 73.98-58.56 158.66-93 252.55-103.7 220.49-25.12 424.46 86.3 522.55 285 33.12 67.14 50.72 144.85 50.61 223.6zm-921.85 409.54c19.91-6.36 37.52-12 55.11-17.6 25-8 50.49-14.91 74.87-24.54 24.08-9.51 44.13-5.89 66.42 7 93 53.66 193.3 69.68 298.42 48.76 174.3-34.68 307.85-171.77 340.36-347 31.55-170.08-45.16-346.62-191.15-439.47-94.28-60-196.82-81.23-306.9-62.71-106.44 17.83-193.58 70.33-261.92 153.29-57.37 69.63-89.12 150.09-95.82 240.27-6.23 83.68 10.27 162.79 50.24 236.32 25 46.08 23.65 39.44 8.12 88.27-12.19 38.33-24.62 76.58-37.75 117.41z"/><path d="m759.33 584c-27.5 0-50.31-23-50-50.43a50.29 50.29 0 0 1 49.93-49.44c27.47-.05 50.28 22.95 50 50.42-.26 27.01-22.88 49.45-49.93 49.45z"/><path d="m1009.3 534.46c-.23 27-22.8 49.46-49.85 49.51-27.52 0-50.35-22.94-50-50.37a50.21 50.21 0 0 1 49.83-49.51c27.44-.09 50.25 22.91 50.02 50.37z"/><path d="m1209.37 534.27c-.13 27.49-23.22 50.11-50.71 49.69-27.12-.42-49.32-23.08-49.15-50.17a50.16 50.16 0 0 1 49.62-49.69c27.45-.21 50.38 22.68 50.24 50.17z"/></g></svg>