<svg id="Layer_1" data-name="Layer 1" xmlns="http://www.w3.org/2000/svg" viewBox="0 0 1023.7 1023.68"><defs><style>.cls-1{fill:#58b748;}.cls-2{fill:#69bf5a;}</style></defs><path class="cls-1" d="M-1074.56,335.62V-226.2c1.94-.71,1.79-2.5,2.21-4.07,15.64-57.47,55.46-87.88,115.08-87.9,38.31,0,76.63-.22,114.93.18,7.8.09,10-1.91,9.9-9.83-.41-41-.59-81.95,0-122.92.49-37,16.3-66.55,46-88.79,14.34-10.75,31.18-15.4,47.86-20.57h593.83c1,2.41,3.28,1.69,5.11,2.08,32.58,7,57.19,24.91,74.39,53.41,7.24,12,9.68,25.65,14.47,38.48V297.64c-3.53,3.26-2.61,7.94-3.51,11.93-17.06,75.72-63,124.59-136.9,147.37-9,2.77-18.35,4.45-27.54,6.64h-10c-3.33-2.44-6.66-2.12-10,0H-946.6c-2-3.55-5.81-2.68-8.78-3.43q-92.36-23.46-115.77-115.73C-1071.9,341.45-1071,337.6-1074.56,335.62Zm272.11,68h9.81q274.89,0,549.78,0c75-.05,132-57.23,132-132.56q.15-358.33,0-716.69c0-33.73-20.49-54.4-54-54.41q-276.89,0-553.77,0a68.83,68.83,0,0,0-12.93.83c-25.67,4.93-41.12,25.05-41.12,53.48q0,376.34.07,752.67c0,26.47-4.89,51.6-17.14,75.12C-793.34,389-797.68,395.58-802.45,403.6Zm-30.18-370c0-93.59-.16-187.18.24-280.77,0-9.44-2.79-11.32-11.57-11.21-38,.47-75.94.19-113.91.2-37.08,0-56.7,19.61-56.71,56.65V245.1c0,23.64-.42,47.3.19,70.93,1.23,47.46,40.77,86.42,88.12,87.49,52.06,1.18,93.41-39.2,93.56-92.16C-832.45,218.77-832.64,126.18-832.63,33.59Z" transform="translate(1074.56 560.1)"/><path class="cls-2" d="M-238.8,463.58c3.33-2.12,6.66-2.44,10,0Z" transform="translate(1074.56 560.1)"/><path class="cls-1" d="M-441.76-30.11q-108.47,0-216.92,0c-17.58,0-29.91-9.67-32.36-24.94-2.83-17.61,9.37-33.17,27.4-34.89,2-.19,4-.12,6-.12q215.91,0,431.83,0c20.24,0,33.83,12.19,33.83,30,0,16.85-13,29.73-30.86,29.84-33,.21-66,.07-99,.07Z" transform="translate(1074.56 560.1)"/><path class="cls-1" d="M-440.74,121.69q108,0,215.92,0c15.93,0,27.56,7.9,31.57,21.09a30.13,30.13,0,0,1-25.6,38.7,62.63,62.63,0,0,1-7,.16q-215.92,0-431.84,0c-17.13,0-29.14-8.17-32.82-22.08-5.27-19.91,9.08-37.79,30.84-37.84,62-.14,124,0,185.93,0Z" transform="translate(1074.56 560.1)"/><path class="cls-1" d="M-521.14-278.18H-383.2c12.4,0,22,5.19,27.81,16.16,5.38,10.21,4.8,20.69-1.6,30.36-5.93,9-14.65,13.42-25.38,13.42q-139.44.06-278.89-.06c-17.18,0-30-13-30.26-29.49-.25-16.79,12.81-30.23,30.44-30.31C-614.44-278.32-567.79-278.17-521.14-278.18Z" transform="translate(1074.56 560.1)"/></svg>