<svg id="Layer_1" data-name="Layer 1" xmlns="http://www.w3.org/2000/svg" viewBox="0 0 1024 1023.86"><defs><style>.cls-1{fill:#0b8945;}</style></defs><path class="cls-1" d="M688.94,1051.91c22.89-33.43,33.56-67.43,33.49-105.91q-.79-425.25-.25-850.5c0-34.47,13.52-55,40.37-63.63a82.12,82.12,0,0,1,25.32-3.8q309.77.06,619.53.05c31,0,52.34,14,60.55,40a83.46,83.46,0,0,1,4,25.26q0,401.48-.13,802.94c-.08,74.29-42.29,130.53-110.73,150-14.12,4-28.83,5.31-43.21,5.34q-309.2.6-618.39.27ZM1097.4,492.44q-125.63,0-251.26,0c-23.09,0-38.68,22.34-31.32,44.4,5.94,17.8,18.39,25.7,40.86,25.71l482.15,0c4.86,0,9.53-1.07,14.3-1.84,20.85-3.37,31.47-21.77,29-38.49-2.3-15.38-13.65-30.26-37-30.08C1261.9,492.82,1179.65,492.44,1097.4,492.44Zm-.1,240.1q-125.64,0-251.28,0c-18.77,0-33.06,14.48-33.27,33.5-.21,19.58,14.15,34.43,33.44,34.43,167.14,0,334.29-.21,501.43.32,18,.05,33.91-16.88,33.83-34.39-.08-17.89-16.25-34.36-34-34.2C1264.07,733,1180.69,732.54,1097.3,732.54ZM1007,347.47c52.83,0,105.67-.7,158.48.35,20.93.42,35.11-19.07,34.8-34.62-.37-17.76-16.14-34.12-34.32-34q-159.62,1-319.24,0c-18-.11-33.9,16.47-34.07,34.05s15.8,34.85,33.6,34.56C899.78,346.9,953.37,347.47,1007,347.47Z" transform="translate(-448 -28.07)"/><path class="cls-1" d="M654.19,628.37c0,103.78.23,207.56-.17,311.33-.1,25.24-5.11,49.54-21.3,70.24-25.91,33.13-60.53,46.58-100.93,39.11-40.16-7.43-66.8-33.36-78.85-72.54-3.56-11.57-4.68-24.28-4.7-36.47q-.42-285.85-.05-571.72c.05-32.16,11.74-52.92,40.32-62.28a80.58,80.58,0,0,1,24.11-3.7c43.78-.35,87.56.09,131.34-.39,8.59-.1,10.45,2.21,10.43,10.57C654.08,417.8,654.19,523.09,654.19,628.37Z" transform="translate(-448 -28.07)"/></svg>