<svg id="Layer_1" data-name="Layer 1" xmlns="http://www.w3.org/2000/svg" viewBox="0 0 1024 1025.45"><defs><style>.cls-1{fill:#fff;}</style></defs><path class="cls-1" d="M1215.84,1052.81c-49.55-4.49-92.41-15.83-134.24-31.28-99.89-36.89-188.51-92.95-270.48-160.1C696.78,767.79,601.28,658,529,528.75,491.5,461.65,463.3,391,450,314.69c-4-23.15-2.23-43.82,10.59-64.19C507.74,175.65,562,107,630,49.86c4.34-3.64,9.21-6.67,13.84-10,27.22-19.48,49.45-15.18,76.85,5.65A60.33,60.33,0,0,1,733.07,58.7C776.84,120.61,819,183.57,852.15,252c7.4,15.26,13,31.51,18.26,47.67,6.11,18.69,2.43,36.85-10.78,50.86-17,18.05-35.7,34.62-54.39,51-22.64,19.87-23.32,19.65-11.32,47.82q80.05,187.8,270.36,262c11.14,4.35,17.47,2.89,25-6.5,15.08-18.88,31.35-36.86,47.69-54.69,21.32-23.25,47.56-30.57,76.4-17.27,36.07,16.63,72.17,33.73,106.28,54,40.93,24.28,79.9,51.91,119.49,78.43,15,10,24.57,24.37,30.17,41.53,4.33,13.28,4.2,26.36-3.69,37.89-11,16.09-21.82,32.69-35.14,46.78-56,59.27-118.57,110.66-189.59,151.17C1231.84,1047.8,1221.48,1050.57,1215.84,1052.81Z" transform="translate(-448.13 -27.36)"/></svg>