<svg viewBox="0 0 1024 1060.94" xmlns="http://www.w3.org/2000/svg"><path d="m1400.48 1070.27c-22.23-10.49-37.39-29-53.89-46.33q-106-111.13-212.77-221.63a33.89 33.89 0 0 1 -3.58-3.72c-6-8.5-11.8-7.68-20.25-2.11a417.67 417.67 0 0 1 -185.23 67.19q-149.35 17-276.1-62.95c-70.82-44.54-123.95-105.07-160.09-180.72-23.91-50.06-36.95-102.64-40.08-157.85-5.21-91.56 16.91-176.22 66.6-253 63.19-97.76 151.91-160.27 265.06-188.15a393.1 393.1 0 0 1 134.17-9.63c93.39 9.5 176.37 45.12 246.79 108.52 35.18 31.66 64.62 67.72 87.8 108.84 28.52 50.59 46.33 104.62 52.58 162.62 10 93.46-9.11 180.51-55.27 261.93a368.34 368.34 0 0 1 -37 53.4c-4.58 5.53-3.67 8.47 1 13.29q120.91 125.54 241.47 251.43c8.15 8.5 14.92 17.6 18.22 29.44 7.91 28.32-10.19 55.28-31.18 65.07-3.09 1.43-6.15 2.94-9.22 4.41zm-525.06-316c171.27-1.63 314.52-134.13 315.82-314 1.25-172.17-132.94-315.94-314.24-317.12-171.67-1.15-314.34 133.05-316.27 312.94-1.83 170.3 131.35 314.91 314.69 318.18z" fill="#fff" transform="translate(-447.74 -9.33)"/></svg>