<svg id="Layer_1" data-name="Layer 1" xmlns="http://www.w3.org/2000/svg" viewBox="0 0 1024 1046.39"><defs><style>.cls-1{fill:#5fbb50;}</style></defs><path class="cls-1" d="M492.86,16.82Q727,136.54,961.16,256.28q242.8,124.35,485.48,249c20.75,10.64,28.62,26.15,23.17,45.3-3.34,11.73-11.79,18.52-22.21,23.84q-119,60.78-237.84,121.78Q859,876,508.23,1055.81c-5.06,2.59-10.24,4.94-15.37,7.4H474.47c-19.83-4.82-30.28-21.17-26-42.4,8.44-42.06,18.4-83.8,27.88-125.64,19.34-85.34,38.25-170.79,57.44-256.17,2.46-10.93,7.56-16.34,18.52-18.16q66-11,131.88-22.52T816,575.3c67.31-11.76,134.71-23,202.93-35.29-67.86-11.8-134.81-23.45-201.74-35.15-78.13-13.67-156.43-26.4-234.43-40.79-10.37-1.91-20.82-3.5-31.28-4.9-9.69-1.29-14.85-6.08-17.08-15.89-21-92.64-42.42-185.2-62.81-278-7.67-34.92-16.08-69.67-23-104.75a40,40,0,0,1-.79-13.19c2.47-18.07,9.9-26,28.77-30.54Z" transform="translate(-447.48 -16.82)"/></svg>