<svg id="Layer_1" data-name="Layer 1" xmlns="http://www.w3.org/2000/svg" viewBox="0 0 817.04 1021.83"><defs><style>.cls-1{fill:#6e6e6e;}</style></defs><path class="cls-1" d="M683.23,1051.43c-4.83-3.43-10.74-2.84-16.1-4.24-54.15-14.18-93.73-44.48-111-99.7-5.79-18.56-4.24-37.41-2.51-56.36Q565.45,762,576.91,632.93q10.47-117.69,20.68-235.41,6.07-69,12.28-138c2-21.41,12.3-30.73,33.75-30.8,33.92-.1,67.84-.3,101.76.14,9.59.12,13.6-1.72,14.34-12.78,6.52-97.7,84.53-176,183.87-185.56,94.89-9.11,186,54.4,211.29,147.21,3.69,13.53,6.6,27.23,6.85,41.2.15,8.34,3.78,9.89,11,9.85,34.58-.22,69.17-.14,103.75-.07,23,.05,33,9.6,35.09,32.72q15.84,178.77,31.77,357.55c8.65,97.33,18.41,194.58,25.48,292,3.43,47.26-19.89,83.6-57.61,110.86-20.58,14.87-43.81,23.5-68.81,27.54-2.24.36-4.73-.07-6.4,2.07Zm277.7-56.23q123.71,0,247.4,0c20.13,0,39.65-3,58.07-11.9,28.48-13.79,48.35-43,46.15-70.08-4.18-51.35-8.82-102.66-13.4-154Q1288.67,641.53,1278,523.86q-10.24-115.2-20.19-230.44c-.55-6.37-3-8.47-9.3-8.41-25.6.26-51.21.36-76.81-.05-7.63-.12-9.64,2.63-9.53,9.85.34,24.27.23,48.55.08,72.82-.12,18.52-11.41,31-27.77,31.18-16.71.17-28.25-12.57-28.34-31.61-.11-24.28-.2-48.55.08-72.83.07-6.66-1.73-9.39-8.93-9.37q-136.66.28-273.34,0c-6.9,0-9.24,2.13-9.15,9.11.34,24.27.2,48.54.1,72.82-.08,19.11-11.41,31.83-28.14,31.89s-27.9-12.66-28-31.9q-.19-36.42,0-72.83c0-6-1.27-9.16-8.23-9.08-26.27.3-52.54.24-78.81,0-6-.05-8,2.29-8.51,8.09-3.11,37.09-6.54,74.16-9.8,111.24q-10.4,118.2-20.73,236.4Q621,773.85,609.08,906.93c-2.72,30,10.06,51.94,33.55,68.88,20.9,15.08,44.89,19.32,69.9,19.35Q836.73,995.33,960.93,995.2Zm-.3-766.56c40.87,0,81.75.25,122.62-.1,25.39-.21,25.36,5.4,19.88-24.21-12.87-69.5-76-120.41-145.06-118.21-74.3,2.37-133,56.18-141.91,130.07-1.47,12.22-1.37,12.42,10.88,12.43Q893.84,228.68,960.63,228.64Z" transform="translate(-552.08 -29.6)"/></svg>