<svg id="Layer_1" data-name="Layer 1" xmlns="http://www.w3.org/2000/svg" viewBox="0 0 817.05 1021.56"><defs><style>.cls-1{fill:#0b8945;}</style></defs><path class="cls-1" d="M683.23,1051.43c-16.17-5.38-33.22-7.73-48.75-15.39-45.25-22.31-75.1-56.31-81.87-107.6-2.9-22,2-43.74,3.79-65.54,4.61-57,10-113.87,15.1-170.8q8.58-95.8,17.14-191.63,7.43-83.4,14.75-166.83c2.22-25.15,4.12-50.34,6.63-75.47,2-20.16,12.55-29.52,32.75-29.58,35.57-.12,71.15-.21,106.73.11,7,.07,9.52-1.39,9.94-9.11C764.55,125,836.87,46,930.75,32.06,1023.91,18.21,1115,71.19,1148.52,158.5c7.69,20,12.48,40.64,13.29,62,.26,6.81,2.64,8.19,8.81,8.15,35.57-.23,71.15-.16,106.73-.09,21.78.05,32.14,9.63,34.07,31.54q13.35,151.44,26.64,302.89c9.62,108.23,18.69,216.52,29.53,324.63,4.2,41.87-2.16,79.39-30.73,111.36-25.34,28.37-57.46,44.35-94.77,50.43-2.11.34-4.8-.83-6.12,2Zm277-56.26q124.69,0,249.39,0c19.41,0,38.44-2.57,56-11.62,26.77-13.8,45.62-34.14,46.78-65.43.69-18.44-2.71-37-4.33-55.57q-11.31-129.11-22.66-258.22-13.76-155.41-27.57-310.82c-.52-5.94-1.73-8.65-8.64-8.53-26.26.46-52.54.41-78.8,0-6.62-.1-8.32,1.87-8.23,8.33.37,24.94.26,49.88.11,74.82-.1,18.32-11.64,30.76-28.09,30.74s-27.94-12.52-28-30.8c-.13-24.94-.26-49.88.12-74.82.1-6.54-1.76-8.28-8.28-8.26q-137.65.31-275.33,0c-7.17,0-7.88,2.73-7.82,8.64.26,24.27.15,48.54.09,72.82,0,19.79-11.35,32.62-28.44,32.47-16.73-.15-27.68-12.69-27.75-32.07q-.13-36.92,0-73.82c0-4.74.14-8.09-6.52-8-27.26.35-54.53.26-81.8,0-5.18,0-6.8,1.7-7.14,6.77-1,14.58-2.51,29.13-3.79,43.69Q647.22,476,634.91,616.54q-12.82,145.49-25.86,291c-2.64,29.12,9.78,50.65,32.28,67.44,20.91,15.61,45.13,20.18,70.51,20.21Q836,995.26,960.23,995.17Zm.39-766.62c45.54,0,91.08-.12,136.62.13,6.78,0,9.5-1.29,8.42-8.78-1.79-12.53-3.65-25-8-36.9-24.25-66.06-88.34-104.52-158.43-95.2-65.4,8.7-117,64-123.69,132.14-.74,7.55,1.75,8.77,8.47,8.74C869.53,228.44,915.07,228.55,960.62,228.55Z" transform="translate(-551.72 -29.87)"/></svg>