<svg id="Layer_1" data-name="Layer 1" xmlns="http://www.w3.org/2000/svg" viewBox="0 0 817.04 1021.83"><defs><style>.cls-1{fill:#6e6e6e;}</style></defs><path class="cls-1" d="M683.23,1051.43c-4.83-3.43-10.74-2.84-16.1-4.24-54.15-14.18-93.73-44.48-111-99.7-5.79-18.56-4.24-37.41-2.51-56.36Q565.45,762,576.91,632.93q10.47-117.69,20.68-235.41,6.07-69,12.28-138c2-21.41,12.3-30.73,33.75-30.8,33.92-.1,67.84-.3,101.76.14,9.59.12,13.6-1.72,14.34-12.78,6.52-97.7,84.53-176,183.87-185.56,94.89-9.11,186,54.4,211.29,147.21,3.69,13.53,6.6,27.23,6.85,41.2.15,8.34,3.78,9.89,11,9.85,34.58-.22,69.17-.14,103.75-.07,23,.05,33,9.6,35.09,32.72q15.84,178.77,31.77,357.55c8.65,97.33,18.41,194.58,25.48,292,3.43,47.26-19.89,83.6-57.61,110.86-20.58,14.87-43.81,23.5-68.81,27.54-2.24.36-4.73-.07-6.4,2.07ZM960.46,995.2q124.2,0,248.4,0c19.78,0,39-3,57.11-11.7,30.93-14.8,48.89-43.48,46.07-75.76q-13.66-156-27.69-311.86-13.32-150.47-26.41-301c-.59-6.81-2.26-10.06-9.94-9.93-25.6.42-51.21.37-76.81,0-7.16-.09-9.07,2.63-9,9.35.3,21.61.11,43.23.1,64.84,0,26.45-9.56,39.81-28.34,39.63-18.45-.17-27.83-13.36-27.84-39.13,0-21.28-.31-42.57.16-63.84.18-8-2-10.92-10.5-10.9q-135.18.42-270.35,0c-8.29,0-10.83,2.41-10.66,10.69.48,24.26.1,48.54.18,72.82,0,7.23-1.62,13.83-6.12,19.57a27.8,27.8,0,0,1-30.4,9.41c-11.86-3.84-19.32-13.17-19.5-26.07-.35-25.6-.22-51.21-.15-76.81,0-5.48-.26-9.63-7.73-9.54-26.6.3-53.21.21-79.81,0-5.59,0-7.48,2.31-7.93,7.6-3.16,37.09-6.57,74.16-9.82,111.24q-10.38,118.2-20.71,236.4Q621,773.89,609.06,907.46c-2.63,29.12,9.79,50.72,32.37,67.52,21,15.6,45.24,20.14,70.63,20.18Q836.26,995.33,960.46,995.2Zm-.25-766.56c40.87,0,81.75.27,122.62-.1,25.82-.24,25.92,5.7,20.16-24.77-13.12-69.48-76.65-120.3-145.49-117.63-74.6,2.89-132.57,56.6-141.6,130.6-1.15,9.47,1.34,12.14,10.72,12.06C871.15,228.42,915.68,228.63,960.21,228.64Z" transform="translate(-552.08 -29.6)"/><path class="cls-1" d="M1194.67,530.65c.67,8.94-5.79,15-11.57,21.46Q1087,658.79,990.83,765.47c-15.58,17.28-31.07,34.64-46.76,51.83-12.58,13.79-25.45,14.39-38.88,1.77q-69.06-64.85-138-129.87c-12-11.36-13.34-25.71-3.6-36.13,9.51-10.16,24.16-9.77,36.36,1.19q50.1,45,100.07,90c20.28,18.31,29.62,17.91,48.1-2.59q101.22-112.17,202.35-224.41c5.79-6.43,12-11.31,21.24-11.06C1185.33,506.62,1194.81,516.16,1194.67,530.65Z" transform="translate(-552.08 -29.6)"/></svg>