<svg viewBox="0 0 817.05 1021.56" xmlns="http://www.w3.org/2000/svg"><g fill="#0b8945" transform="translate(-551.72 -29.87)"><path d="m683.23 1051.43c-16.17-5.38-33.22-7.73-48.75-15.39-45.25-22.31-75.1-56.31-81.87-107.6-2.9-22 2-43.74 3.79-65.54 4.61-57 10-113.87 15.1-170.8q8.58-95.8 17.14-191.63 7.43-83.4 14.75-166.83c2.22-25.15 4.12-50.34 6.63-75.47 2-20.16 12.55-29.52 32.75-29.58 35.57-.12 71.15-.21 106.73.11 7 .07 9.52-1.39 9.94-9.11 5.11-94.59 77.43-173.59 171.31-187.53 93.16-13.85 184.25 39.13 217.77 126.44 7.69 20 12.48 40.64 13.29 62 .26 6.81 2.64 8.19 8.81 8.15 35.57-.23 71.15-.16 106.73-.09 21.78.05 32.14 9.63 34.07 31.54q13.35 151.44 26.64 302.89c9.62 108.23 18.69 216.52 29.53 324.63 4.2 41.87-2.16 79.39-30.73 111.36-25.34 28.37-57.46 44.35-94.77 50.43-2.11.34-4.8-.83-6.12 2zm277.27-56.26q124.7 0 249.39 0c25.75 0 50.17-5.06 71.2-21.14 20.12-15.38 33.4-35.16 31.31-61.1-7.09-87.77-15.16-175.47-22.94-263.19q-15.81-178.25-31.61-356.5c-.55-6.3-2.38-8.35-8.91-8.25-25.93.4-51.88.53-77.8-.06-8.05-.18-9.08 2.74-9 9.67.39 23.93.2 47.88.13 71.82-.06 19.93-11.25 32.65-28.38 32.47-16.7-.17-27.72-12.8-27.78-32.06-.07-24.61-.18-49.22.1-73.82.07-5.79-1-8-7.5-8q-138.16.35-276.33 0c-6.39 0-7.66 1.94-7.58 7.87.31 24.94.21 49.88.1 74.82-.07 18.38-11.33 30.92-27.7 31.2-16.82.29-28.38-12.28-28.47-31.33-.13-24.6-.31-49.21.14-73.81.12-7.11-2-8.89-8.9-8.76-22.27.43-44.56.16-66.84.16-18.51 0-18.51 0-20.46 17.89-.32 3-.82 5.93-1.08 8.9q-12.37 141-24.71 282.06-13.8 156.87-27.88 313.75c-2.59 28.7 9.65 50 31.7 66.73 22.92 17.37 49.62 20.78 77.35 20.73q121.24-.22 242.45-.05zm-.29-766.62c45.87 0 91.75-.1 137.62.12 6.46 0 8.82-1.46 7.86-8.37-1.79-12.86-3.74-25.62-8.3-37.84-24.51-65.74-87.7-103.66-157.77-94.7-65.29 8.34-116.83 63.35-124.09 131.77-.88 8.36 2.09 9.19 9.05 9.15 45.21-.25 90.42-.13 135.63-.13z"/><path d="m1194.88 531c.6 7-4.32 12.79-9.53 18.57q-112.83 125.17-225.61 250.43c-5.79 6.42-11.42 13-17.39 19.24-10.76 11.29-24 12.12-35.26 1.6q-71-66.45-141.6-133.28c-10.44-9.88-11.14-24.09-2.38-34 9-10.15 23.7-11 34.72-1.14q53.2 47.46 106 95.34c5 4.5 10.08 8.78 17.09 9.51 10 1 16.92-4 23.23-11.07q68.67-76.38 137.53-152.58 35.73-39.61 71.53-79.17c7.38-8.12 17.91-10.66 27.15-6.72 9.5 4.01 14.46 11.32 14.52 23.27z"/></g></svg>