<svg id="Layer_1" data-name="Layer 1" xmlns="http://www.w3.org/2000/svg" viewBox="0 0 1024 968.57"><defs><style>.cls-1{fill:#0b5028;}.cls-2{fill:#0b5129;}</style></defs><path class="cls-1" d="M1087.84,465.35c26.69,34.74,61.51,49.63,104.33,48.13,22.25-.77,44.56.53,65.63-8.73,16.26-7.14,30.78-16.8,42-30.61,5-6.16,7.26-6.5,12.78-.19,21.7,24.84,49.26,38.62,82.49,38.95,10,.1,12.23,3.21,12.21,12.84q-.51,187.95-.23,375.89c0,30.23.1,60.46,0,90.69-.09,21.31-9.24,30.6-30.56,30.61-147.58.08-295.17-.08-442.75.3-10.44,0-10.2-4.81-10.19-12.21q.18-180.19.08-360.38c0-27.38-8-35.29-35.6-35.29q-93.69,0-187.37,0c-22.91,0-31.87,8.88-31.88,31.64q0,182,.23,364c0,10-2.63,12.52-12.48,12.26-27.83-.72-55.68-.17-83.53-.28-22.21-.08-31.32-9-31.33-31q-.07-233.89-.25-467.78c0-9.3,2.91-11.07,11.43-11.15,33.71-.33,61.54-14.19,83.58-39.33,4.94-5.63,6.75-6.15,12-.12,22.51,26,51.26,39.55,85.86,39.67,17.48.07,35.1,1.6,52.42-1.43,30.73-5.37,55.23-21.3,74-46.24C909.29,531.17,1039.91,530.11,1087.84,465.35ZM1050.71,742.1c0,32.61-.06,65.22,0,97.83,0,20.2,9.68,30.14,29.87,30.2q84.72.24,169.43,0c20.15-.06,29.82-10,29.84-30.24q.11-97.23,0-194.47c0-20.47-9.51-30-29.89-30q-84.71-.12-169.43,0c-20.36,0-29.77,9.56-29.83,30.08C1050.66,677.67,1050.71,709.88,1050.71,742.1Z" transform="translate(-462.46 -54.66)"/><path class="cls-2" d="M974.64,54.94c15.11,0,30.22.22,45.31-.1,5.91-.13,8.43,1.67,9.09,7.83q10.61,98.31,21.63,196.56c4.32,39.08,8.5,78.17,12.92,117.23,5.16,45.7-28.87,85.23-74.71,86-14.64.23-29.38,1.52-44-1.66A76.59,76.59,0,0,1,885,377q17.41-156.28,34.42-312.61c.85-7.83,3.72-9.87,11.15-9.6C945.22,55.33,959.94,54.94,974.64,54.94Z" transform="translate(-462.46 -54.66)"/><path class="cls-2" d="M1131.71,54.94c13.91,0,27.85.59,41.72-.22,8.36-.48,11.49,2.39,13.65,10.31,18.62,68.05,37.73,136,56.62,203.94q15,53.85,29.69,107.77c13.26,48.28-15.5,85.8-65.85,85.8-11.92,0-24,.82-35.71-.87-29-4.19-50.16-26-53.65-55.8-8.53-73-16.32-146-24.44-219-4.48-40.25-8.77-80.53-13.75-120.72-1.11-9,.51-12,10-11.39C1103.85,55.56,1117.79,54.94,1131.71,54.94Z" transform="translate(-462.46 -54.66)"/><path class="cls-2" d="M817,54.94c14.7,0,29.42.38,44.11-.15,7.35-.26,8.49,2.45,7.74,9Q852.47,207,836.46,350.27c-1.9,17-3.83,33.94-5.41,50.94-3.43,36.91-29.36,61.29-66.21,61.24-15,0-30.19,1.8-45.11-1.91-33.35-8.29-55.22-41.34-46.51-74.58,18.7-71.3,38.89-142.22,58.53-213.28C741.68,136.77,752,101,761.55,65c2.13-8,5.44-10.7,13.72-10.23C789.14,55.51,803.08,54.94,817,54.94Z" transform="translate(-462.46 -54.66)"/><path class="cls-2" d="M711.65,55c-12.57,45.24-24.78,89.13-37,133Q644.28,297.5,613.9,407c-10.95,39.61-31.8,55.5-73.21,55.57-11.15,0-22.27.18-33.11-3.1-38-11.48-55.48-51.09-38.81-89.17,22.11-50.51,44.72-100.8,67.12-151.18,18.85-42.4,38.08-84.64,56.42-127.27,10.87-25.28,29.08-37.57,56.56-37C669.14,55.28,689.42,55,711.65,55Z" transform="translate(-462.46 -54.66)"/><path class="cls-2" d="M1237.81,55.12c24,0,47.45-.71,70.87.21,20.77.82,36.21,11.56,44.72,30.65,42.65,95.64,85.5,191.18,127.33,287.17,18.79,43.11-10.77,87.74-57.87,89.21-12.65.4-25.43,1.57-38-1.48-23.59-5.7-40.37-19.92-46.87-43-33.59-119.14-66.41-238.5-99.46-357.78A40.66,40.66,0,0,1,1237.81,55.12Z" transform="translate(-462.46 -54.66)"/></svg>